<?xml version="1.0" encoding="UTF-8" standalone="no"?>
<svg width="18px" height="13px" viewBox="0 0 18 13" version="1.1" xmlns="http://www.w3.org/2000/svg" xmlns:xlink="http://www.w3.org/1999/xlink">
    <!-- Generator: Sketch 49.3 (51167) - http://www.bohemiancoding.com/sketch -->
    <title>Shape</title>
    <desc>Created with Sketch.</desc>
    <defs>
        <polygon id="path-1" points="1246.0007 447.000294 1246.0007 503.000087 1230.99974 518.000271 854.999808 518.000271 807.00048 477.000055 442.000416 474.000055 393.000192 518.000271 14.000064 518.000271 0.999648 503.999816 0.999648 447.000294 18.999552 428.999709 18.999552 89.000161 2.000544 71.999912 2.000544 15.000184 14.999712 0.999729 226.00032 0.999729 237.99984 13.000119 1009.00051 13.000119 1021.00003 0.999729 1230.99974 0.999729 1244.99981 15.999913 1244.99981 71.999912 1227.99955 89.000161 1227.99955 428.999709"></polygon>
        <filter x="-1.2%" y="-2.9%" width="102.4%" height="105.8%" filterUnits="objectBoundingBox" id="filter-2">
            <feMorphology radius="2.4" operator="erode" in="SourceAlpha" result="shadowSpreadInner1"></feMorphology>
            <feGaussianBlur stdDeviation="13.8" in="shadowSpreadInner1" result="shadowBlurInner1"></feGaussianBlur>
            <feOffset dx="0" dy="0" in="shadowBlurInner1" result="shadowOffsetInner1"></feOffset>
            <feComposite in="shadowOffsetInner1" in2="SourceAlpha" operator="arithmetic" k2="-1" k3="1" result="shadowInnerInner1"></feComposite>
            <feColorMatrix values="0 0 0 0 0.2   0 0 0 0 0.5529412   0 0 0 0 0.8862745  0 0 0 0.5 0" type="matrix" in="shadowInnerInner1"></feColorMatrix>
        </filter>
        <polygon id="path-3" points="1124.00315 3.04518315e-14 0 0 0 40.0000229 1136 40.0000229 1136 11.4286019"></polygon>
    </defs>
    <g id="Page-1" stroke="none" stroke-width="1" fill="none" fill-rule="evenodd">
        <g id="绵羊墙last" transform="translate(-1000.000000, -182.000000)">
            <g id="底图" transform="translate(-2.000000, -1.000000)" fill="#010816">
                <polygon id="矩形-1-拷贝" points="2.000472 1.00035 1281.99953 1.00035 1281.99953 1024.99965 2.000472 1024.99965"></polygon>
            </g>
            <g id="表格框" transform="translate(17.000000, 93.000000)">
                <g id="形状-2-拷贝">
                    <use fill-opacity="0" fill="#18769A" fill-rule="evenodd" xlink:href="#path-1"></use>
                    <use fill="black" fill-opacity="1" filter="url(#filter-2)" xlink:href="#path-1"></use>
                    <path stroke="#47A3CB" stroke-width="2" d="M1245.0007,447.414517 L1226.99955,429.413932 L1226.99955,88.5859473 L1243.99981,71.5856983 L1243.99981,16.394074 L1230.56519,1.999729 L1021.41427,1.999729 L1009.41475,14.000119 L237.585605,14.000119 L225.586085,1.999729 L15.4358101,1.999729 L3.000544,15.3928465 L3.000544,71.5857198 L19.999552,88.5859688 L19.999552,429.413911 L1.999648,447.414496 L1.999648,503.607126 L14.4361337,517.000271 L392.617103,517.000271 L441.620839,472.996901 L807.372978,476.003083 L855.368761,517.000271 L1230.58555,517.000271 L1245.0007,502.585858 L1245.0007,447.414517 Z"></path>
                </g>
                <polygon id="形状-2-拷贝-4" fill-opacity="0.1" fill="#0D477E" points="1245.00017 446.000112 1245.00017 503.999816 1231.00028 516.999776 856.000216 516.999776 807.00002 476.000188 439.999442 473.000188 391.000492 516.999776 15.000424 516.999776 2.000538 502.999816 2.000538 448.000112 20.000254 429.999704 20.000254 90.000004 2.99983 72.99982 2.99983 13.999892 15.000056 2.000224 226.99948 2.000224 238.999706 13.999892 1007.99976 13.999892 1019.99998 2.000224 1229.00028 2.000224 1243.99963 15.999736 1243.99963 72.99982 1227.00045 90.000004 1227.00045 427.999704"></polygon>
            </g>
            <g id="表格" transform="translate(72.000000, 134.000000)">
                <g id="表格1" transform="translate(0.000000, 34.000000)">
                    <g id="矩形-18-拷贝" opacity="0.5">
                        <use fill-opacity="0.5" fill="#127793" fill-rule="evenodd" xlink:href="#path-3"></use>
                        <path stroke="#1F9DC0" stroke-width="2" d="M1123.60307,1 L1,1 L1,39.0000229 L1135,39.0000229 L1135,11.857095 L1123.60307,1 Z"></path>
                    </g>
                    <g id="表格内容" transform="translate(34.000000, 11.000000)" fill="#47A3CB" fill-rule="nonzero">
                        <g id="Group-6" transform="translate(894.000000, 2.000000)">
                            <g id="身份证" transform="translate(0.000000, 1.000000)">
                                <path d="M15.5829794,0 L2.0276223,0 C0.908046648,0 0,0.893209453 0,1.9944916 L0,10.9671866 C0,12.0684687 0.908046648,12.96 2.0276223,12.96 L15.5846854,12.96 C16.704261,12.96 17.6123077,12.0667905 17.6123077,10.9671866 L17.6123077,1.9944916 C17.6105833,0.893209453 16.7025367,0 15.582961,0 L15.5829794,0 Z M11.2959636,3.98769231 L14.1809407,3.98769231 C14.4100561,3.98769231 14.6215385,4.27508575 14.6215385,4.48615385 C14.6215385,4.69722194 14.4100561,4.98461538 14.1809407,4.98461538 L11.2959636,4.98461538 C11.066867,4.98461538 10.8553846,4.69722194 10.8553846,4.48615385 C10.8553846,4.27508575 11.066867,3.98769231 11.2959636,3.98769231 Z M11.2959636,6.20307692 L14.1809407,6.20307692 C14.4100561,6.20307692 14.6215385,6.49047037 14.6215385,6.70153846 C14.6215385,6.91260655 14.4100561,7.2 14.1809407,7.2 L11.2959636,7.2 C11.066867,7.2 10.8553846,6.91260655 10.8553846,6.70153846 C10.8553846,6.49045305 11.066867,6.20307692 11.2959636,6.20307692 Z M2.09923038,10.0646727 C1.88060106,10.0220545 1.73712557,9.8124 1.77983116,9.59421818 C2.03945348,8.2408 3.05232668,7.19761818 4.32994176,6.83114545 C3.66722164,6.4766 3.2094665,5.78625455 3.2094665,4.98341818 C3.2094665,3.82261818 4.15571242,2.88 5.31718068,2.88 C6.47864894,2.88 7.42491307,3.82432727 7.42491307,4.98341818 C7.42491307,5.78625455 6.96715793,6.4766 6.30443781,6.83114545 C7.58547809,7.19761818 8.59833307,8.24592727 8.85454841,9.60443636 C8.89554141,9.82261818 8.75206592,10.0322727 8.5334366,10.0731818 C8.50782053,10.0782909 8.48218624,10.08 8.45828277,10.08 L2.09923038,10.0646727 Z M15.515108,9.41538462 L11.2910272,9.41538462 C11.0644975,9.41538462 10.8553846,9.12799117 10.8553846,8.91692308 C10.8553846,8.70585498 11.0644975,8.41846154 11.2910272,8.41846154 L15.515108,8.41846154 C15.7416563,8.41846154 15.9507692,8.70585498 15.9507692,8.91692308 C15.9507692,9.12799117 15.7416563,9.41538462 15.515108,9.41538462 Z" id="Shape"></path>
                            </g>
                        </g>
                    </g>
                </g>
            </g>
        </g>
    </g>
</svg>