<?xml version="1.0" encoding="UTF-8" standalone="no"?>
<svg width="15px" height="18px" viewBox="0 0 15 18" version="1.1" xmlns="http://www.w3.org/2000/svg" xmlns:xlink="http://www.w3.org/1999/xlink">
    <!-- Generator: Sketch 49.3 (51167) - http://www.bohemiancoding.com/sketch -->
    <title>密码</title>
    <desc>Created with Sketch.</desc>
    <defs></defs>
    <g id="Page-1" stroke="none" stroke-width="1" fill="none" fill-rule="evenodd">
        <g id="绵羊墙last" transform="translate(-328.000000, -179.000000)" fill="#47A3CB" fill-rule="nonzero">
            <g id="表格" transform="translate(72.000000, 134.000000)">
                <g id="表格1" transform="translate(0.000000, 34.000000)">
                    <g id="表格内容" transform="translate(34.000000, 11.000000)">
                        <g id="Group-3" transform="translate(222.000000, 0.000000)">
                            <g id="密码">
                                <path d="M13.7255946,7.71403312 L12.5000034,7.71403312 L12.5036814,4.00014392 C12.5036814,1.79039238 10.2722226,0 7.5134429,0 C4.75830129,0 2.52320439,1.79039238 2.52320439,4.00014392 L2.49999669,7.71403312 L1.24755964,7.71403312 C0.557884718,7.71403312 0.0268657882,8.28592575 0.0268657882,8.83898558 L0,16.8750475 C0,17.42747 0.584730484,18 1.27442541,18 L13.7548991,18 C14.4421753,18 14.9731342,17.42747 14.9731342,16.8750475 L15,8.83898558 C15,8.28594631 14.4128708,7.71403312 13.7255946,7.71403312 Z M9.98289575,7.71403312 L4.99999337,7.71403312 L4.99999337,3.85702683 C4.99999337,2.75466965 6.14012987,1.999486 7.51344292,1.999486 C8.88795534,1.999486 9.9999867,2.7546491 9.9999867,3.85702683 L9.98289575,7.71403312 Z" id="Shape"></path>
                            </g>
                        </g>
                    </g>
                </g>
            </g>
        </g>
    </g>
</svg>