<?xml version="1.0" encoding="UTF-8" standalone="no"?>
<svg width="18px" height="18px" viewBox="0 0 18 18" version="1.1" xmlns="http://www.w3.org/2000/svg" xmlns:xlink="http://www.w3.org/1999/xlink">
    <!-- Generator: Sketch 49.3 (51167) - http://www.bohemiancoding.com/sketch -->
    <title>Shape</title>
    <desc>Created with Sketch.</desc>
    <defs></defs>
    <g id="Page-1" stroke="none" stroke-width="1" fill="none" fill-rule="evenodd">
        <g id="绵羊墙last" transform="translate(-626.000000, -179.000000)" fill="#47A3CB" fill-rule="nonzero">
            <g id="表格" transform="translate(72.000000, 134.000000)">
                <g id="表格1" transform="translate(0.000000, 34.000000)">
                    <g id="表格内容" transform="translate(34.000000, 11.000000)">
                        <g id="Group-4" transform="translate(520.000000, 0.000000)">
                            <g id="QQ">
                                <polygon id="Shape" points="2.49796087 8.09177107 2.46480544 7.98662377 2.43767826 7.85023705 2.41883994 7.77632915 2.41883994 7.6826109 2.41883994 7.56984423 2.41883994 7.4685066 2.45124185 7.34812056 2.48515082 7.2193532 2.52734865 7.08601422 2.58537066 6.93667458 2.66223099 6.78200135 2.7707397 6.6265662 2.7707397 6.51684727 2.78204269 6.41550966 2.79786688 6.27683711 2.84458591 6.1221639 2.88753728 5.95301389 2.92144625 5.87529631 2.96062994 5.80367423 3.01111663 5.72367084 3.06612453 5.66423975 3.06612453 5.55528277 3.06612453 5.43108703 3.06612453 5.27946157 3.09852642 5.08059601 3.13017479 4.85201491 3.18744328 4.5761937 3.26731775 4.29046732 3.32533977 4.13198443 3.38411532 3.96207247 3.44741206 3.80130376 3.52351886 3.63062987 3.60113273 3.44319337 3.69080312 3.26718592 3.79102297 3.07898747 3.91761646 2.89155096 3.97639201 2.78640366 4.03893522 2.69801897 4.17532464 2.49991535 4.31397466 2.30181172 4.47297005 2.09837453 4.6425149 1.90103286 4.82713043 1.70597698 5.02003478 1.50482561 5.25287638 1.2884355 5.4005688 1.15814427 5.5806631 1.01566204 5.76377155 0.889942437 5.96119712 0.77031832 6.15108736 0.663647144 6.36509064 0.575262456 6.59190398 0.465543527 6.81871733 0.390873688 7.0440236 0.313918055 7.28741465 0.23620048 7.53080572 0.176769393 7.78776036 0.128005418 8.0469756 0.0868608194 8.30242319 0.0518117288 8.55937784 0.0167626202 8.83215667 0 9.09212545 0 9.36038308 0 9.63919019 0 9.9066943 0.0350491085 10.1779661 0.067812406 10.4530055 0.0967660066 10.7076995 0.158482905 10.9782178 0.217152049 11.2314048 0.284202512 11.5094583 0.358110408 11.7626453 0.449542849 12.0067899 0.553928214 12.2660051 0.663647144 12.5026144 0.784033186 12.7324419 0.917372169 12.9577482 1.06442602 13.1536667 1.20081274 13.2433371 1.27776837 13.3390357 1.33415172 13.5183765 1.48958687 13.6713436 1.63892651 13.8228037 1.79436166 13.9704961 1.96579749 14.0925684 2.13037589 14.2364931 2.30181172 14.33822 2.48620048 14.441454 2.64925499 14.5499627 2.83897731 14.6396331 3.00507959 14.7933538 3.3555706 14.8664465 3.53691162 14.925222 3.70529969 14.983244 3.88664071 15.0359913 4.05807654 15.0729144 4.20513039 15.1181264 4.37885202 15.202522 4.68896038 15.2552693 4.95868608 15.2906854 5.22079241 15.3185661 5.43108703 15.3652851 5.75186251 15.3758346 5.80367423 15.4142647 5.86234339 15.5144846 6.02844565 15.5777813 6.13968845 15.6365569 6.2577887 15.7096496 6.38274636 15.7729463 6.53360989 15.8143906 6.6882831 15.8603561 6.85667119 15.8950186 7.03039283 15.9115963 7.11496784 15.9251599 7.2193532 15.9251599 7.31078564 15.9115963 7.40145614 15.9115963 7.51422283 15.8852227 7.62317981 15.836243 7.83499831 15.7804816 7.94090755 15.7420514 8.06205553 15.7420514 8.09177107 15.7601362 8.12834405 15.8143906 8.21749068 16.0525069 8.57179139 16.2408901 8.83923128 16.331314 9.01828649 16.4518792 9.21410429 16.5573738 9.42820861 16.6794461 9.65755164 16.8022719 9.91432442 16.9386614 10.2061463 17.0155217 10.3852015 17.0863538 10.5581612 17.1481434 10.7433119 17.2084261 10.9078903 17.253638 11.0823739 17.3011106 11.2446664 17.3598861 11.5631561 17.4066052 11.8892652 17.4375 12.1780393 17.4375 12.3357602 17.4375 12.4645276 17.4375 12.5841517 17.4171546 12.7296817 17.3862598 12.9773112 17.3433084 13.2020826 17.2769975 13.4047579 17.253638 13.4885709 17.2084261 13.5868608 17.1699959 13.6554351 17.1180022 13.7430579 17.0727902 13.7948696 17.0155217 13.8649678 16.965035 13.9205892 16.9092736 13.9693532 16.8444698 13.9983068 16.7856942 14.0272604 16.7374681 14.0432611 16.6945168 14.0432611 16.6636219 14.0432611 16.6161494 14.0272604 16.526479 13.9823061 16.4842812 13.9533525 16.4428368 13.9205892 16.3946108 13.8779208 16.3471382 13.8299187 16.2680173 13.7430579 16.1738257 13.6165764 16.0999795 13.4885709 16.0276403 13.3841856 15.9560547 13.2637995 15.8543278 13.0489333 15.7420514 12.8264477 15.7277343 12.8203522 15.7096496 12.8203522 15.6629305 12.8554013 15.6365569 12.9133085 15.5905914 12.9849306 15.5144846 13.2020826 15.3961799 13.5099052 15.247734 13.8779208 15.1362112 14.0630714 15.0163995 14.2543176 14.8769959 14.4714697 14.730057 14.6832882 14.6531967 14.7785303 14.5605122 14.8836776 14.3487695 15.0939722 14.3676078 15.1130207 14.3954885 15.1427362 14.5017366 15.2067389 14.9433068 15.4200813 15.1362112 15.5290383 15.3185661 15.6364714 15.500921 15.7705723 15.6629305 15.9092448 15.7420514 15.9709617 15.7993199 16.0425838 15.8603561 16.1256349 15.9115963 16.2170674 15.93797 16.2917372 15.9718789 16.3824077 15.9854425 16.4593634 15.9997596 16.5507958 15.9854425 16.6125127 15.9854425 16.6734677 15.9718789 16.7382323 15.93797 16.7961395 15.9251599 16.8426177 15.8950186 16.8974771 15.8143906 17.007958 15.7420514 17.0955808 15.6832759 17.1626312 15.6365569 17.2113952 15.5144846 17.3020657 15.3758346 17.3790213 15.2288957 17.455215 15.0729144 17.5260752 14.8958342 17.5954114 14.8031497 17.624365 14.7180005 17.6502709 14.5145467 17.697511 14.3043111 17.7432272 14.0925684 17.7889434 13.8627409 17.8262784 13.6246246 17.8361835 13.38048 17.866661 13.1401031 17.866661 12.885409 17.866661 12.6269473 17.866661 12.3526614 17.8491365 12.0979674 17.8262784 11.8259421 17.7889434 11.5554238 17.7592279 11.2683279 17.7180833 10.9917814 17.6502709 10.7220167 17.5954114 10.4530055 17.5176939 10.1779661 17.419404 9.9066943 17.3363529 9.76578368 17.2883508 9.63919019 17.2418727 9.55856219 17.2113952 9.47868772 17.1953945 9.37620727 17.1953945 9.25413497 17.1953945 8.99491973 17.1763461 8.86380505 17.1626312 8.69426019 17.1435828 8.58650502 17.2418727 8.43730555 17.3363529 8.23686584 17.4361666 8.01532723 17.5580765 7.87969135 17.624365 7.73953426 17.6792245 7.42832527 17.8072299 7.25878041 17.8491365 7.08170023 17.8986624 6.83529504 17.9451405 6.68232791 17.9596173 6.51881131 17.9733322 6.34851293 17.9916187 6.15108736 18 5.96119712 18 5.76377155 18 5.34330031 18 4.8866595 17.9916187 4.44358227 17.9451405 4.21902954 17.914663 4.00276565 17.8818998 3.79102297 17.8491365 3.58003381 17.8072299 3.38411532 17.7432272 3.18744328 17.697511 3.01111663 17.624365 2.84458591 17.5580765 2.68935817 17.4826448 2.55447582 17.4011175 2.41883994 17.3020657 2.37362798 17.2533017 2.31334537 17.1953945 2.26737987 17.1435828 2.22593556 17.0856756 2.18901247 17.0254826 2.1596247 16.9675753 2.11742686 16.8426177 2.10235621 16.777853 2.08351789 16.705469 2.08351789 16.6391805 2.10235621 16.5645107 2.10235621 16.4890789 2.11742686 16.4144091 2.11742686 16.3694548 2.11742686 16.2650694 2.12496219 16.1843041 2.1596247 16.0936336 2.18901247 16.0022012 2.24251329 15.8924822 2.28169699 15.8505757 2.31334537 15.8025736 2.39774102 15.6981883 2.46480544 15.6456146 2.52734865 15.6075178 2.58537066 15.5587538 2.67805518 15.5290383 2.75190139 15.4848459 2.84458591 15.43532 2.95008049 15.4040806 3.05557506 15.3713173 3.17764735 15.3454114 3.29369139 15.3286488 3.43083434 15.3103623 3.58003381 15.2996952 3.61921752 15.2859804 3.62750637 15.2859804 3.64634469 15.2699797 3.64634469 15.2524551 3.61921752 15.2143583 3.53934304 15.1762614 3.34191749 15.0033017 3.20929573 14.8966305 3.05557506 14.7610058 2.90034733 14.6078564 2.73833781 14.4128005 2.55447582 14.1933627 2.48515082 14.0752624 2.3924663 13.9533525 2.31334537 13.8108703 2.24251329 13.6554351 2.14606111 13.5099052 2.08351789 13.3399932 2.00967169 13.173891 1.93507195 12.9849306 1.88006406 12.8066373 1.82882384 12.5841517 1.81299965 12.5772943 1.79792901 12.5772943 1.78964014 12.5605317 1.77155535 12.5605317 1.73990698 12.5772943 1.72332927 12.5841517 1.70223035 12.6222486 1.6939415 12.6672028 1.67811731 12.7075855 1.65023659 12.773874 1.55981267 12.9376905 1.51234011 13.0367423 1.43849391 13.1213173 1.35861944 13.2257027 1.27196318 13.3399932 1.17927866 13.4428547 1.07152349 13.5411446 0.969796574 13.6348628 0.859780806 13.7072469 0.738462031 13.7842025 0.62166447 13.8299187 0.483767988 13.8649678 0.349639163 13.8779208 0.336075574 13.8779208 0.317237269 13.8779208 0.287095955 13.8649678 0.262229377 13.8108703 0.22229215 13.7842025 0.170298394 13.6554351 0.137896482 13.5868608 0.103233973 13.4885709 0.0745997364 13.3841856 0.0587755499 13.282086 0.0158241865 13.0489333 0 12.9133085 0 12.773874 0 12.4645276 0.0158241865 12.1300373 0.0429513634 11.9586014 0.0745997364 11.782594 0.103233973 11.5928717 0.153720669 11.4168642 0.21174268 11.2126651 0.27051823 11.0160853 0.349639163 10.8118862 0.423485378 10.6175923 0.525212292 10.4194887 0.62166447 10.2061463 0.738462031 10.0049949 0.875604993 9.78784287 1.01500853 9.592787 1.16119387 9.37715882 1.28251265 9.22705724 1.43849391 9.0533356 1.6020105 8.88037588 1.67811731 8.79732476 1.77155535 8.70360651 1.90568418 8.58550626 2.04358066 8.46512022 2.26737987 8.26244498 2.43767826 8.13672537"></polygon>
                            </g>
                        </g>
                    </g>
                </g>
            </g>
        </g>
    </g>
</svg>