<?xml version="1.0" encoding="UTF-8" standalone="no"?>
<svg width="12px" height="18px" viewBox="0 0 12 18" version="1.1" xmlns="http://www.w3.org/2000/svg" xmlns:xlink="http://www.w3.org/1999/xlink">
    <!-- Generator: Sketch 49.3 (51167) - http://www.bohemiancoding.com/sketch -->
    <title>Shape</title>
    <desc>Created with Sketch.</desc>
    <defs>
        <polygon id="path-1" points="1246.0007 447.000294 1246.0007 503.000087 1230.99974 518.000271 854.999808 518.000271 807.00048 477.000055 442.000416 474.000055 393.000192 518.000271 14.000064 518.000271 0.999648 503.999816 0.999648 447.000294 18.999552 428.999709 18.999552 89.000161 2.000544 71.999912 2.000544 15.000184 14.999712 0.999729 226.00032 0.999729 237.99984 13.000119 1009.00051 13.000119 1021.00003 0.999729 1230.99974 0.999729 1244.99981 15.999913 1244.99981 71.999912 1227.99955 89.000161 1227.99955 428.999709"></polygon>
        <filter x="-1.2%" y="-2.9%" width="102.4%" height="105.8%" filterUnits="objectBoundingBox" id="filter-2">
            <feMorphology radius="2.4" operator="erode" in="SourceAlpha" result="shadowSpreadInner1"></feMorphology>
            <feGaussianBlur stdDeviation="13.8" in="shadowSpreadInner1" result="shadowBlurInner1"></feGaussianBlur>
            <feOffset dx="0" dy="0" in="shadowBlurInner1" result="shadowOffsetInner1"></feOffset>
            <feComposite in="shadowOffsetInner1" in2="SourceAlpha" operator="arithmetic" k2="-1" k3="1" result="shadowInnerInner1"></feComposite>
            <feColorMatrix values="0 0 0 0 0.2   0 0 0 0 0.5529412   0 0 0 0 0.8862745  0 0 0 0.5 0" type="matrix" in="shadowInnerInner1"></feColorMatrix>
        </filter>
        <polygon id="path-3" points="1124.00315 3.04518315e-14 0 0 0 40.0000229 1136 40.0000229 1136 11.4286019"></polygon>
    </defs>
    <g id="Page-1" stroke="none" stroke-width="1" fill="none" fill-rule="evenodd">
        <g id="绵羊墙last" transform="translate(-808.000000, -179.000000)">
            <g id="底图" transform="translate(-2.000000, -1.000000)" fill="#010816">
                <polygon id="矩形-1-拷贝" points="2.000472 1.00035 1281.99953 1.00035 1281.99953 1024.99965 2.000472 1024.99965"></polygon>
            </g>
            <g id="表格框" transform="translate(17.000000, 93.000000)">
                <g id="形状-2-拷贝">
                    <use fill-opacity="0" fill="#18769A" fill-rule="evenodd" xlink:href="#path-1"></use>
                    <use fill="black" fill-opacity="1" filter="url(#filter-2)" xlink:href="#path-1"></use>
                    <path stroke="#47A3CB" stroke-width="2" d="M1245.0007,447.414517 L1226.99955,429.413932 L1226.99955,88.5859473 L1243.99981,71.5856983 L1243.99981,16.394074 L1230.56519,1.999729 L1021.41427,1.999729 L1009.41475,14.000119 L237.585605,14.000119 L225.586085,1.999729 L15.4358101,1.999729 L3.000544,15.3928465 L3.000544,71.5857198 L19.999552,88.5859688 L19.999552,429.413911 L1.999648,447.414496 L1.999648,503.607126 L14.4361337,517.000271 L392.617103,517.000271 L441.620839,472.996901 L807.372978,476.003083 L855.368761,517.000271 L1230.58555,517.000271 L1245.0007,502.585858 L1245.0007,447.414517 Z"></path>
                </g>
                <polygon id="形状-2-拷贝-4" fill-opacity="0.1" fill="#0D477E" points="1245.00017 446.000112 1245.00017 503.999816 1231.00028 516.999776 856.000216 516.999776 807.00002 476.000188 439.999442 473.000188 391.000492 516.999776 15.000424 516.999776 2.000538 502.999816 2.000538 448.000112 20.000254 429.999704 20.000254 90.000004 2.99983 72.99982 2.99983 13.999892 15.000056 2.000224 226.99948 2.000224 238.999706 13.999892 1007.99976 13.999892 1019.99998 2.000224 1229.00028 2.000224 1243.99963 15.999736 1243.99963 72.99982 1227.00045 90.000004 1227.00045 427.999704"></polygon>
            </g>
            <g id="表格" transform="translate(72.000000, 134.000000)">
                <g id="表格1" transform="translate(0.000000, 34.000000)">
                    <g id="矩形-18-拷贝" opacity="0.5">
                        <use fill-opacity="0.5" fill="#127793" fill-rule="evenodd" xlink:href="#path-3"></use>
                        <path stroke="#1F9DC0" stroke-width="2" d="M1123.60307,1 L1,1 L1,39.0000229 L1135,39.0000229 L1135,11.857095 L1123.60307,1 Z"></path>
                    </g>
                    <g id="表格内容" transform="translate(34.000000, 11.000000)" fill="#47A3CB" fill-rule="nonzero">
                        <g id="Group-5" transform="translate(702.000000, 0.000000)">
                            <path d="M8.88555347,0 L2.49906191,0 C1.11874672,0 0,1.11572308 0,2.49230769 L0,15.5076923 C0,16.8842769 1.11874672,18 2.49906191,18 L8.88555347,18 C10.2658687,18 11.3846154,16.8842769 11.3846154,15.5076923 L11.3846154,2.49230769 C11.3846154,1.11572308 10.2658687,0 8.88555347,0 Z M5.6923077,16.8923077 C5.30884054,16.8923077 4.99812385,16.5824308 4.99812385,16.2 C4.99812385,15.8175692 5.30884054,15.5076923 5.6923077,15.5076923 C6.07577487,15.5076923 6.38649156,15.8175692 6.38649156,16.2 C6.38649156,16.5824308 6.07577487,16.8923077 5.6923077,16.8923077 Z M9.99624765,14.6769231 L1.38836773,14.6769231 L1.38836773,3.32307694 L9.99624765,3.32307694 L9.99624765,14.6769231 Z" id="Shape"></path>
                        </g>
                    </g>
                </g>
            </g>
        </g>
    </g>
</svg>